<mxfile host="app.diagrams.net" modified="2024-05-07T02:02:39.351Z" agent="Mozilla/5.0 (Windows NT 10.0; Win64; x64) AppleWebKit/537.36 (KHTML, like Gecko) Chrome/124.0.0.0 Safari/537.36" etag="ZcfwyOnJzrcTugljQIYy" version="24.3.1" type="device">
  <diagram name="PÃ¡gina-1" id="Oud4WkDoQikH7uASS9xX">
    <mxGraphModel dx="1235" dy="686" grid="1" gridSize="10" guides="1" tooltips="1" connect="1" arrows="1" fold="1" page="1" pageScale="1" pageWidth="2000" pageHeight="2000" math="0" shadow="0">
      <root>
        <mxCell id="0" />
        <mxCell id="1" parent="0" />
        <mxCell id="crr9qkgmJlSrGmQXbTak-12" style="edgeStyle=orthogonalEdgeStyle;rounded=0;orthogonalLoop=1;jettySize=auto;html=1;entryX=0;entryY=0.5;entryDx=0;entryDy=0;" edge="1" parent="1" source="crr9qkgmJlSrGmQXbTak-1" target="crr9qkgmJlSrGmQXbTak-2">
          <mxGeometry relative="1" as="geometry">
            <Array as="points">
              <mxPoint x="130" y="160" />
            </Array>
          </mxGeometry>
        </mxCell>
        <mxCell id="crr9qkgmJlSrGmQXbTak-1" value="INCIO" style="ellipse;whiteSpace=wrap;html=1;" vertex="1" parent="1">
          <mxGeometry x="70" y="220" width="120" height="80" as="geometry" />
        </mxCell>
        <mxCell id="crr9qkgmJlSrGmQXbTak-16" style="edgeStyle=orthogonalEdgeStyle;rounded=0;orthogonalLoop=1;jettySize=auto;html=1;entryX=0;entryY=0.5;entryDx=0;entryDy=0;" edge="1" parent="1" source="crr9qkgmJlSrGmQXbTak-2" target="crr9qkgmJlSrGmQXbTak-15">
          <mxGeometry relative="1" as="geometry" />
        </mxCell>
        <mxCell id="crr9qkgmJlSrGmQXbTak-2" value="A" style="ellipse;whiteSpace=wrap;html=1;" vertex="1" parent="1">
          <mxGeometry x="220" y="130" width="60" height="60" as="geometry" />
        </mxCell>
        <mxCell id="crr9qkgmJlSrGmQXbTak-18" style="edgeStyle=orthogonalEdgeStyle;rounded=0;orthogonalLoop=1;jettySize=auto;html=1;entryX=0;entryY=0.5;entryDx=0;entryDy=0;" edge="1" parent="1" source="crr9qkgmJlSrGmQXbTak-15" target="crr9qkgmJlSrGmQXbTak-17">
          <mxGeometry relative="1" as="geometry" />
        </mxCell>
        <mxCell id="crr9qkgmJlSrGmQXbTak-15" value="B" style="ellipse;whiteSpace=wrap;html=1;" vertex="1" parent="1">
          <mxGeometry x="350" y="130" width="60" height="60" as="geometry" />
        </mxCell>
        <mxCell id="crr9qkgmJlSrGmQXbTak-26" style="edgeStyle=orthogonalEdgeStyle;rounded=0;orthogonalLoop=1;jettySize=auto;html=1;entryX=0;entryY=0.5;entryDx=0;entryDy=0;" edge="1" parent="1" source="crr9qkgmJlSrGmQXbTak-17" target="crr9qkgmJlSrGmQXbTak-20">
          <mxGeometry relative="1" as="geometry" />
        </mxCell>
        <mxCell id="crr9qkgmJlSrGmQXbTak-27" style="edgeStyle=orthogonalEdgeStyle;rounded=0;orthogonalLoop=1;jettySize=auto;html=1;entryX=0;entryY=0.5;entryDx=0;entryDy=0;" edge="1" parent="1" source="crr9qkgmJlSrGmQXbTak-17" target="crr9qkgmJlSrGmQXbTak-23">
          <mxGeometry relative="1" as="geometry" />
        </mxCell>
        <mxCell id="crr9qkgmJlSrGmQXbTak-28" style="edgeStyle=orthogonalEdgeStyle;rounded=0;orthogonalLoop=1;jettySize=auto;html=1;entryX=0;entryY=0.5;entryDx=0;entryDy=0;" edge="1" parent="1" source="crr9qkgmJlSrGmQXbTak-17" target="crr9qkgmJlSrGmQXbTak-24">
          <mxGeometry relative="1" as="geometry" />
        </mxCell>
        <mxCell id="crr9qkgmJlSrGmQXbTak-29" style="edgeStyle=orthogonalEdgeStyle;rounded=0;orthogonalLoop=1;jettySize=auto;html=1;entryX=0;entryY=0.5;entryDx=0;entryDy=0;" edge="1" parent="1" source="crr9qkgmJlSrGmQXbTak-17" target="crr9qkgmJlSrGmQXbTak-19">
          <mxGeometry relative="1" as="geometry" />
        </mxCell>
        <mxCell id="crr9qkgmJlSrGmQXbTak-17" value="C" style="ellipse;whiteSpace=wrap;html=1;" vertex="1" parent="1">
          <mxGeometry x="480" y="130" width="60" height="60" as="geometry" />
        </mxCell>
        <mxCell id="crr9qkgmJlSrGmQXbTak-46" style="edgeStyle=orthogonalEdgeStyle;rounded=0;orthogonalLoop=1;jettySize=auto;html=1;" edge="1" parent="1" source="crr9qkgmJlSrGmQXbTak-19" target="crr9qkgmJlSrGmQXbTak-35">
          <mxGeometry relative="1" as="geometry" />
        </mxCell>
        <mxCell id="crr9qkgmJlSrGmQXbTak-19" value="D" style="ellipse;whiteSpace=wrap;html=1;" vertex="1" parent="1">
          <mxGeometry x="590" y="20" width="60" height="60" as="geometry" />
        </mxCell>
        <mxCell id="crr9qkgmJlSrGmQXbTak-32" style="edgeStyle=orthogonalEdgeStyle;rounded=0;orthogonalLoop=1;jettySize=auto;html=1;entryX=0;entryY=0.5;entryDx=0;entryDy=0;" edge="1" parent="1" source="crr9qkgmJlSrGmQXbTak-20" target="crr9qkgmJlSrGmQXbTak-31">
          <mxGeometry relative="1" as="geometry" />
        </mxCell>
        <mxCell id="crr9qkgmJlSrGmQXbTak-20" value="E" style="ellipse;whiteSpace=wrap;html=1;" vertex="1" parent="1">
          <mxGeometry x="590" y="110" width="60" height="60" as="geometry" />
        </mxCell>
        <mxCell id="crr9qkgmJlSrGmQXbTak-34" style="edgeStyle=orthogonalEdgeStyle;rounded=0;orthogonalLoop=1;jettySize=auto;html=1;entryX=0;entryY=0.5;entryDx=0;entryDy=0;" edge="1" parent="1" source="crr9qkgmJlSrGmQXbTak-23" target="crr9qkgmJlSrGmQXbTak-33">
          <mxGeometry relative="1" as="geometry" />
        </mxCell>
        <mxCell id="crr9qkgmJlSrGmQXbTak-23" value="F" style="ellipse;whiteSpace=wrap;html=1;" vertex="1" parent="1">
          <mxGeometry x="590" y="210" width="60" height="60" as="geometry" />
        </mxCell>
        <mxCell id="crr9qkgmJlSrGmQXbTak-44" style="edgeStyle=orthogonalEdgeStyle;rounded=0;orthogonalLoop=1;jettySize=auto;html=1;entryX=1;entryY=1;entryDx=0;entryDy=0;" edge="1" parent="1" source="crr9qkgmJlSrGmQXbTak-24" target="crr9qkgmJlSrGmQXbTak-41">
          <mxGeometry relative="1" as="geometry">
            <Array as="points">
              <mxPoint x="891" y="340" />
            </Array>
          </mxGeometry>
        </mxCell>
        <mxCell id="crr9qkgmJlSrGmQXbTak-24" value="I" style="ellipse;whiteSpace=wrap;html=1;" vertex="1" parent="1">
          <mxGeometry x="590" y="310" width="60" height="60" as="geometry" />
        </mxCell>
        <mxCell id="crr9qkgmJlSrGmQXbTak-42" style="edgeStyle=orthogonalEdgeStyle;rounded=0;orthogonalLoop=1;jettySize=auto;html=1;entryX=0.5;entryY=0;entryDx=0;entryDy=0;" edge="1" parent="1" source="crr9qkgmJlSrGmQXbTak-31" target="crr9qkgmJlSrGmQXbTak-41">
          <mxGeometry relative="1" as="geometry" />
        </mxCell>
        <mxCell id="crr9qkgmJlSrGmQXbTak-31" value="G" style="ellipse;whiteSpace=wrap;html=1;" vertex="1" parent="1">
          <mxGeometry x="720" y="110" width="60" height="60" as="geometry" />
        </mxCell>
        <mxCell id="crr9qkgmJlSrGmQXbTak-43" style="edgeStyle=orthogonalEdgeStyle;rounded=0;orthogonalLoop=1;jettySize=auto;html=1;entryX=0.5;entryY=1;entryDx=0;entryDy=0;" edge="1" parent="1" source="crr9qkgmJlSrGmQXbTak-33" target="crr9qkgmJlSrGmQXbTak-41">
          <mxGeometry relative="1" as="geometry">
            <Array as="points">
              <mxPoint x="870" y="240" />
            </Array>
          </mxGeometry>
        </mxCell>
        <mxCell id="crr9qkgmJlSrGmQXbTak-33" value="H" style="ellipse;whiteSpace=wrap;html=1;" vertex="1" parent="1">
          <mxGeometry x="720" y="210" width="60" height="60" as="geometry" />
        </mxCell>
        <mxCell id="crr9qkgmJlSrGmQXbTak-35" value="FIN" style="ellipse;whiteSpace=wrap;html=1;" vertex="1" parent="1">
          <mxGeometry x="950" y="150" width="120" height="80" as="geometry" />
        </mxCell>
        <mxCell id="crr9qkgmJlSrGmQXbTak-45" style="edgeStyle=orthogonalEdgeStyle;rounded=0;orthogonalLoop=1;jettySize=auto;html=1;" edge="1" parent="1" source="crr9qkgmJlSrGmQXbTak-41" target="crr9qkgmJlSrGmQXbTak-35">
          <mxGeometry relative="1" as="geometry" />
        </mxCell>
        <mxCell id="crr9qkgmJlSrGmQXbTak-41" value="J" style="ellipse;whiteSpace=wrap;html=1;" vertex="1" parent="1">
          <mxGeometry x="840" y="160" width="60" height="60" as="geometry" />
        </mxCell>
      </root>
    </mxGraphModel>
  </diagram>
</mxfile>
